# xmcd
#
# Track frame offsets:
#	150
#	21349
#	39920
#	68818
#	91942
#	111134
#	129764
#	152278
#	164766
#	180931
#	200515
#	221325
#	243176
#
# Disc length: 3602 seconds
#
# Revision: 0
# Processed by: cddbd v1.5.2PL0 Copyright (c) Steve Scherf et al.
# Submitted via: audiograbber 1.83.01
#
DISCID=9c0e100d
DTITLE=Noisia - Split the atom - Disk 2
DYEAR=2012
DGENRE=Elektrocore
TTITLE0=Tommy's Theme
TTITLE1=Could this be
TTITLE2=Stigma (Neosignal Remix)
TTITLE3=My world (Posij Remix)
TTITLE4=Split the atom (Kito Remix)
TTITLE5=Tommy's Theme (Loadstar Remix)
TTITLE6=Soul Purge (Current Value Remix)
TTITLE7=Diplodocus (Kill the noise Remix)
TTITLE8=Tommy's Theme (Munchi Remix)
TTITLE9=Thursday (Black Sun Empire Remix)
TTITLE10=Diplodocus (The Upbeats Remix)
TTITLE11=Alpha Centauri (Excision and Datsik Remix)
TTITLE12=Machine Gun (16 bit Remix)
EXTD=
EXTT0=
EXTT1=
EXTT2=
EXTT3=
EXTT4=
EXTT5=
EXTT6=
EXTT7=
EXTT8=
EXTT9=
EXTT10=
EXTT11=
EXTT12=
PLAYORDER=
